<?xml version="1.0" encoding="UTF-8" standalone="no"?>
<svg
   width="120"
   height="120"
   viewBox="0 0 191 191"
   version="1.2"
   baseProfile="tiny"
   id="svg2"
   xmlns="http://www.w3.org/2000/svg"
   xmlns:svg="http://www.w3.org/2000/svg"
   xmlns:rdf="http://www.w3.org/1999/02/22-rdf-syntax-ns#"
   xmlns:cc="http://creativecommons.org/ns#"
   xmlns:dc="http://purl.org/dc/elements/1.1/">
  <title
     id="title1">Startmining</title>
  <path
     d="m 170.81898,45.152974 c -0.8904,-0.109797 -1.78575,-0.170668 -2.68274,-0.182446 -1.65643,-0.02232 -3.31039,0.115727 -4.94128,0.412254 -0.16968,0.03113 -0.33689,0.06235 -0.50492,0.09645 -2.8483,0.575673 -5.59034,1.597782 -8.12976,3.029757 -2.70004,1.495646 -5.13649,3.438881 -7.20724,5.749727 -0.0412,0.04448 -0.0799,0.09192 -0.12108,0.137884 l -5.22627,-1.788465 -7.95679,4.469804 8.09434,2.826637 -94.324262,42.165544 C 45.979444,94.074371 46.085041,85.743383 48.126789,77.798703 49.216687,73.581771 50.852936,69.530728 52.99262,65.752159 59.4349,54.360444 70.034232,46.010099 82.492041,42.512078 94.949851,39.014056 108.26182,40.650305 119.54053,47.066062 L 145.3136,35.97598 C 131.79365,23.193944 114.00866,16.100306 95.54694,16.125718 c -31.875997,0 -58.996949,20.714883 -69.046636,49.626441 -2.58327,7.438526 -3.983583,15.248287 -4.148254,23.135144 -0.01166,0.559611 -0.0175,1.118728 -0.0175,1.677268 -0.0071,7.200564 1.013337,14.363729 3.029485,21.266209 0.02479,0.0832 0.04959,0.16473 0.0729,0.24628 l -8.061579,3.60526 v 18.04692 l 13.757437,-7.76487 56.017106,-31.60764 v 3.928479 L 34.586658,131.78782 v 8.15694 l 110.504552,-74.607902 -1.75939,8.649012 7.92137,-4.542453 1.24706,-5.510941 0.0947,-0.01631 c 1.96613,-0.355749 3.88696,-0.931174 5.7279,-1.715898 0.99089,-0.421397 1.95707,-0.898145 2.89525,-1.428104 2.58554,-1.446307 4.92975,-3.298113 6.94777,-5.487218 0.084,-0.09192 0.16721,-0.185329 0.2504,-0.278817 1.1128,-1.24607 2.10699,-2.596747 2.96856,-4.033828 0.46785,-0.77797 0.8937,-1.581474 1.27506,-2.406888 0.42585,-0.908688 0.77838,-1.851065 1.05432,-2.81774 -0.94806,-0.277005 -1.91589,-0.475925 -2.89525,-0.5947 z"
     fill="#00b773"/>
  <path
     d="M 167.24913,75.482422 144.56405,91.1283 c -0.0708,8.518541 -2.3022,16.87399 -6.47745,24.25914 -2.16217,3.81778 -4.81032,7.32914 -7.87607,10.44185 -4.54344,4.64475 -9.94763,8.32662 -15.89957,10.83391 -5.95277,2.50647 -12.33467,3.78813 -18.777364,3.77001 -2.472782,-8.3e-4 -4.942187,-0.1878 -7.387705,-0.56093 l 18.835929,-22.81029 -51.731482,35.68859 c 11.950503,8.02597 25.961451,12.29348 40.283258,12.27124 31.882174,0 59.004444,-20.71648 69.055864,-49.63273 4.42565,-12.81076 5.34488,-26.604088 2.65967,-39.905186 z"
     fill="#061929"/>
</svg>
